<?xml version="1.0" standalone="no"?>
<!DOCTYPE svg PUBLIC "-//W3C//DTD SVG 20010904//EN"
 "http://www.w3.org/TR/2001/REC-SVG-20010904/DTD/svg10.dtd">
<svg version="1.0" xmlns="http://www.w3.org/2000/svg"
 width="1080.000000pt" height="1350.000000pt" viewBox="0 0 1080.000000 1350.000000"
 preserveAspectRatio="xMidYMid meet">

<g transform="translate(0.000000,1350.000000) scale(0.100000,-0.100000)"
fill="#000000" stroke="none">
<path d="M5230 11241 c0 -113 2 -130 17 -136 19 -7 170 -5 191 2 9 4 12 40 12
134 l0 129 -110 0 -110 0 0 -129z m66 48 c-9 -19 -15 -29 -16 -22 0 18 20 66
25 61 3 -3 -1 -20 -9 -39z m55 14 c-8 -15 -10 -15 -11 -2 0 17 10 32 18 25 2
-3 -1 -13 -7 -23z m36 -19 c-3 -3 -12 -4 -19 -1 -8 3 -5 6 6 6 11 1 17 -2 13
-5z m-88 -58 c-9 -8 -10 -7 -5 7 3 10 7 24 7 30 1 7 3 4 6 -7 3 -10 -1 -23 -8
-30z m94 37 c-7 -2 -19 -2 -25 0 -7 3 -2 5 12 5 14 0 19 -2 13 -5z m-122 -36
c-10 -9 -11 -8 -5 6 3 10 9 15 12 12 3 -3 0 -11 -7 -18z m127 16 c-10 -2 -26
-2 -35 0 -10 3 -2 5 17 5 19 0 27 -2 18 -5z m-110 -81 c-13 -33 -28 -43 -28
-18 0 8 -3 22 -7 32 -5 13 -3 16 10 11 9 -3 19 -2 23 4 12 20 13 2 2 -29z m72
20 c0 -4 -6 -14 -12 -21 -10 -11 -10 -14 0 -18 21 -8 13 -23 -13 -23 -27 0
-33 18 -13 38 10 10 10 15 -2 22 -12 8 -9 10 13 10 15 0 27 -4 27 -8z m60 3
c0 -2 -6 -16 -13 -33 l-13 -31 -10 33 c-10 31 -9 34 13 34 13 0 23 -2 23 -3z"/>
<path d="M4580 9575 l0 -435 85 0 85 0 0 200 0 200 85 0 85 0 0 80 0 80 -85 0
-85 0 0 70 0 70 85 0 85 0 0 85 0 85 -170 0 -170 0 0 -435z"/>
<path d="M4980 9576 l0 -436 85 0 85 0 2 198 3 197 25 0 c42 0 50 -33 50 -222
l0 -173 80 0 80 0 0 190 c0 205 -7 241 -51 255 -22 7 -22 8 4 23 47 29 60 72
55 191 -4 116 -19 158 -65 188 -22 15 -55 19 -190 21 l-163 4 0 -436z m250
255 c13 -25 13 -82 0 -115 -7 -20 -16 -26 -40 -26 l-30 0 0 80 0 80 30 0 c19
0 33 -7 40 -19z"/>
<path d="M5470 9575 l0 -435 175 0 175 0 0 85 0 85 -90 0 -90 0 0 100 0 100
80 0 80 0 0 80 0 80 -80 0 -80 0 0 85 0 85 85 0 85 0 0 85 0 85 -170 0 -170 0
0 -435z"/>
<path d="M5880 9575 l0 -435 180 0 180 0 0 85 0 85 -90 0 -90 0 0 100 0 100
80 0 80 0 0 80 0 80 -80 0 -80 0 0 85 0 84 83 3 82 3 3 83 3 82 -176 0 -175 0
0 -435z"/>
<path d="M6939 8601 c-57 -12 -102 -44 -129 -92 l-25 -44 0 -295 c0 -285 1
-296 22 -336 20 -37 74 -93 91 -94 4 -1 27 -5 52 -10 101 -19 195 24 234 109
20 44 21 61 21 331 0 279 -1 286 -23 333 -39 77 -141 119 -243 98z m94 -190
c4 -19 7 -138 5 -266 -3 -243 -7 -265 -49 -265 -10 0 -23 9 -29 19 -14 27 -14
506 1 532 7 14 19 19 37 17 20 -2 28 -11 35 -37z"/>
<path d="M3600 8165 l0 -435 75 0 75 0 1 308 c0 169 4 298 8 287 5 -11 30
-149 57 -307 l48 -288 76 0 76 0 43 276 c24 152 47 291 52 308 4 17 7 -107 8
-276 l1 -308 75 0 75 0 0 435 0 435 -130 0 c-97 0 -130 -3 -130 -12 -1 -28
-69 -500 -73 -504 -2 -2 -19 103 -36 233 -18 131 -35 248 -38 261 -5 21 -9 22
-134 22 l-129 0 0 -435z"/>
<path d="M4416 8558 c-9 -68 -76 -774 -76 -803 0 -25 1 -25 79 -25 l78 0 7 70
7 70 54 0 54 0 7 -70 7 -70 78 0 c57 0 79 4 79 13 0 6 -18 199 -40 427 -22
228 -40 418 -40 423 0 4 -65 7 -144 7 l-145 0 -5 -42z m168 -298 c9 -102 18
-200 20 -217 5 -33 5 -33 -40 -33 l-45 0 5 33 c3 17 10 111 16 207 11 168 16
208 25 199 2 -2 11 -87 19 -189z"/>
<path d="M4850 8165 l0 -435 85 0 85 0 0 200 c0 191 1 200 19 200 46 0 51 -20
51 -216 l0 -184 85 0 85 0 0 180 c0 192 -8 233 -49 262 -20 14 -20 15 8 36 39
28 56 100 48 203 -13 165 -48 189 -272 189 l-145 0 0 -435z m248 216 c5 -85
-2 -101 -43 -101 l-35 0 0 81 0 80 38 -3 37 -3 3 -54z"/>
<path d="M5320 8165 l0 -435 85 0 85 0 0 435 0 435 -85 0 -85 0 0 -435z"/>
<path d="M5560 8165 l0 -435 85 0 85 0 2 208 3 207 38 -190 c21 -104 40 -198
43 -207 5 -15 18 -18 85 -18 l79 0 0 435 0 435 -80 0 -80 0 -2 -202 -3 -203
-40 203 -39 202 -88 0 -88 0 0 -435z"/>
<path d="M6126 8578 c-3 -13 -21 -196 -41 -408 -20 -212 -38 -397 -41 -412
l-6 -28 86 0 86 0 0 48 c0 86 5 92 66 92 l54 0 0 -32 c0 -18 3 -50 6 -70 l7
-38 79 0 80 0 -6 48 c-9 67 -76 779 -76 803 0 18 -8 19 -145 19 -142 0 -145 0
-149 -22z m167 -325 c23 -265 25 -243 -23 -243 -22 0 -40 3 -40 8 0 4 7 93 15
197 8 105 15 200 15 213 0 12 4 22 8 22 5 0 16 -89 25 -197z"/>
<path d="M6550 8165 l0 -435 80 0 80 0 0 435 0 435 -80 0 -80 0 0 -435z"/>
<path d="M8370 7376 c0 -9 5 -16 10 -16 6 0 10 4 10 9 0 6 -4 13 -10 16 -5 3
-10 -1 -10 -9z"/>
</g>
</svg>
